<?xml version="1.0" encoding="UTF-8"?>
<svg width="122px" height="122px" viewBox="0 0 122 122" version="1.1" xmlns="http://www.w3.org/2000/svg" xmlns:xlink="http://www.w3.org/1999/xlink">
    <title>proposal-04</title>
    <defs>
        <circle id="path-1" cx="60" cy="60" r="60"></circle>
        <linearGradient x1="49.9999995%" y1="-2%" x2="49.9999995%" y2="102%" id="linearGradient-3">
            <stop stop-color="#03A6A6" offset="0%"></stop>
            <stop stop-color="#006667" offset="100%"></stop>
        </linearGradient>
        <linearGradient x1="0.0234982332%" y1="50.3244898%" x2="99.9765018%" y2="50.3244898%" id="linearGradient-4">
            <stop stop-color="#029292" offset="0%"></stop>
            <stop stop-color="#055151" offset="100%"></stop>
        </linearGradient>
        <linearGradient x1="49.9999995%" y1="-2%" x2="49.9999995%" y2="102%" id="linearGradient-5">
            <stop stop-color="#03A6A6" offset="0%"></stop>
            <stop stop-color="#006667" offset="100%"></stop>
        </linearGradient>
        <linearGradient x1="50%" y1="-0.0540838852%" x2="50%" y2="99.9043046%" id="linearGradient-6">
            <stop stop-color="#FFFFFF" offset="0%"></stop>
            <stop stop-color="#FFFFFF" offset="50%"></stop>
            <stop stop-color="#FCFDFE" offset="51.13%"></stop>
            <stop stop-color="#84AADA" offset="100%"></stop>
        </linearGradient>
        <linearGradient x1="50%" y1="0.0799007444%" x2="50%" y2="100.032754%" id="linearGradient-7">
            <stop stop-color="#220092" offset="0%"></stop>
            <stop stop-color="#130024" offset="100%"></stop>
        </linearGradient>
        <linearGradient x1="0.0182345376%" y1="49.9926233%" x2="100.023069%" y2="49.9926233%" id="linearGradient-8">
            <stop stop-color="#FFFFFF" offset="0%"></stop>
            <stop stop-color="#FFFFFF" offset="50%"></stop>
            <stop stop-color="#FCFDFE" offset="51.13%"></stop>
            <stop stop-color="#84AADA" offset="100%"></stop>
        </linearGradient>
        <linearGradient x1="49.9999995%" y1="-2%" x2="49.9999995%" y2="102%" id="linearGradient-9">
            <stop stop-color="#03A6A6" offset="0%"></stop>
            <stop stop-color="#006667" offset="100%"></stop>
        </linearGradient>
        <linearGradient x1="49.9997917%" y1="0.0670833333%" x2="49.9997917%" y2="100.066875%" id="linearGradient-10">
            <stop stop-color="#B3B3B3" offset="0%"></stop>
            <stop stop-color="#FFFFFF" offset="100%"></stop>
        </linearGradient>
        <linearGradient x1="0.0234982332%" y1="49.7112245%" x2="99.9765018%" y2="49.7112245%" id="linearGradient-11">
            <stop stop-color="#220092" offset="0%"></stop>
            <stop stop-color="#130024" offset="100%"></stop>
        </linearGradient>
        <linearGradient x1="0.0234982332%" y1="50.3234694%" x2="99.9765018%" y2="50.3234694%" id="linearGradient-12">
            <stop stop-color="#220092" offset="0%"></stop>
            <stop stop-color="#130024" offset="100%"></stop>
        </linearGradient>
        <circle id="path-13" cx="60" cy="60" r="60"></circle>
    </defs>
    <g id="Page-1" stroke="none" stroke-width="1" fill="none" fill-rule="evenodd">
        <g id="AI---Avatar-Proposal-04-" transform="translate(-39.000000, -78.000000)">
            <g id="proposal-04" transform="translate(40.000000, 79.000000)">
                <mask id="mask-2" fill="white">
                    <use xlink:href="#path-1"></use>
                </mask>
                <use id="Mask" fill-opacity="0.16" fill="#03A6A6" xlink:href="#path-1"></use>
                <g id="avatar-boy" mask="url(#mask-2)">
                    <g transform="translate(19.818091, 12.875000)">
                        <g id="Group" stroke-width="1" fill="none" fill-rule="evenodd" transform="translate(16.821909, 0.245000)">
                            <g id="Group-2" transform="translate(0.080000, 0.000000)">
                                <rect id="Rectangle" fill="url(#linearGradient-3)" fill-rule="nonzero" x="17" y="38" width="13" height="23.472"></rect>
                                <path d="M16.032,45.072 L16.032,45.072 C16.032,45.504 16.6150389,45.856 17.3305866,45.856 L29.7334134,45.856 C30.4489611,45.856 31.032,45.504 31.032,45.072 L31.032,45.072 C31.032,44.64 30.4489611,44.288 29.7334134,44.288 L17.3305866,44.288 C16.6150389,44.288 16.032,44.64 16.032,45.072 Z" id="Path" fill="url(#linearGradient-4)" fill-rule="nonzero"></path>
                                <path d="M16.032,48.208 L16.032,48.208 C16.032,48.64 16.6150389,48.992 17.3305866,48.992 L29.7334134,48.992 C30.4489611,48.992 31.032,48.64 31.032,48.208 L31.032,48.208 C31.032,47.776 30.4489611,47.424 29.7334134,47.424 L17.3305866,47.424 C16.6150389,47.424 16.032,47.776 16.032,48.208 Z" id="Path" fill="url(#linearGradient-4)" fill-rule="nonzero"></path>
                                <path d="M16.032,51.208 L16.032,51.208 C16.032,51.64 16.6150389,51.992 17.3305866,51.992 L29.7334134,51.992 C30.4489611,51.992 31.032,51.64 31.032,51.208 L31.032,51.208 C31.032,50.776 30.4489611,50.424 29.7334134,50.424 L17.3305866,50.424 C16.6150389,50.424 16.032,50.776 16.032,51.208 Z" id="Path-Copy" fill="url(#linearGradient-4)" fill-rule="nonzero"></path>
                                <g id="Group" transform="translate(0.200000, 0.880000)">
                                    <g transform="translate(1.440000, 5.600000)"></g>
                                    <g transform="translate(12.000000, 12.320000)"></g>
                                </g>
                                <rect id="Rectangle" fill="url(#linearGradient-5)" fill-rule="nonzero" x="1.72" y="6.592" width="1.744" height="15.664"></rect>
                                <rect id="Rectangle" fill="url(#linearGradient-5)" fill-rule="nonzero" x="43.672" y="6.592" width="1.744" height="15.664"></rect>
                                <path d="M44.744,16.224 L2.376,16.224 C1.224,16.224 0.296,17.152 0.296,18.304 L0.296,28.64 C0.296,29.792 1.224,30.72 2.376,30.72 L44.744,30.72 C45.896,30.72 46.824,29.792 46.824,28.64 L46.824,18.304 C46.824,17.152 45.896,16.224 44.744,16.224 Z" id="Path" fill="url(#linearGradient-6)" fill-rule="nonzero"></path>
                                <path d="M1.096,23.456 L1.096,28.624 C1.096,29.328 1.672,29.904 2.376,29.904 L44.744,29.904 C45.448,29.904 46.024,29.328 46.024,28.624 L46.024,23.456 L1.096,23.456 Z" id="Path" fill="url(#linearGradient-7)" fill-rule="nonzero" opacity="0.1"></path>
                                <path d="M34.624,4 L12,4 C7.584,4 4,7.584 4,12 L4,34.608 C4,39.024 7.584,42.608 12,42.608 L34.608,42.608 C39.024,42.608 42.6080534,39.024 42.6080534,34.608 L42.6080534,12 C42.624,7.584 39.04,4 34.624,4 Z" id="Path" fill="url(#linearGradient-8)" fill-rule="nonzero"></path>
                                <path d="M12.248,33.168 C9.608,33.168 7.448,31.008 7.448,28.368 L7.448,5.76 C7.448,3.12 9.608,0.96 12.248,0.96 L34.856,0.96 C37.496,0.96 39.656,3.12 39.656,5.76 L39.656,28.368 C39.656,31.008 37.496,33.168 34.856,33.168 L12.248,33.168 Z" id="Path" fill="url(#linearGradient-9)" fill-rule="nonzero"></path>
                                <circle id="Oval" fill="url(#linearGradient-10)" fill-rule="nonzero" cx="16.12" cy="17.056" r="3.84"></circle>
                                <circle id="Oval" fill="url(#linearGradient-10)" fill-rule="nonzero" cx="31" cy="17.056" r="3.84"></circle>
                                <path d="M38.872,6.496 L38.872,5.76 C38.872,3.552 37.08,1.76 34.872,1.76 L12.248,1.76 C10.04,1.76 8.248,3.552 8.248,5.76 L8.248,28.368 C8.248,30.576 10.04,32.368 12.248,32.368 L12.984,32.368 C13.416,18.272 24.76,6.912 38.872,6.496 Z" id="Path" fill="#FFFFFF" fill-rule="nonzero" opacity="0.2"></path>
                            </g>
                            <g transform="translate(19.000000, 56.000000)" fill-rule="nonzero" id="Path">
                                <path d="M0.112,1.6 L0.112,1.6 C0.112,2.032 0.464,2.384 0.896,2.384 L8.384,2.384 C8.816,2.384 9.168,2.032 9.168,1.6 L9.168,1.6 C9.168,1.168 8.816,0.816 8.384,0.816 L0.896,0.816 C0.464,0.816 0.112,1.168 0.112,1.6 Z" fill="url(#linearGradient-11)"></path>
                                <path d="M0.112,4.72 L0.112,4.72 C0.112,5.152 0.464,5.504 0.896,5.504 L8.384,5.504 C8.816,5.504 9.168,5.152 9.168,4.72 L9.168,4.72 C9.168,4.288 8.816,3.936 8.384,3.936 L0.896,3.936 C0.464,3.936 0.112,4.288 0.112,4.72 Z" fill="url(#linearGradient-12)"></path>
                            </g>
                        </g>
                        <path d="M26.2997208,53.1736906 L29.0707516,52.4094599 L51.2502113,52.4961522 L62.4154189,67.3766906 L55.5715698,105.223306 C50.6049283,106.618306 45.3840226,107.375691 39.9871925,107.375691 C35.5877208,107.375691 31.3055321,106.87746 27.1795698,105.920691 L14.9194189,68.5725368 L26.2997208,53.1736906 Z" id="Path" fill="#017172" fill-rule="nonzero"></path>
                        <path d="M28.7047019,52.4165368 L7.74319245,59.3719214 C6.88281509,59.6509214 6.35504151,60.3884599 6.17889057,61.2852291 L0,93.1327676 C4.1454566,97.1386906 8.87730566,100.526844 14.0590415,103.137537 L14.6490792,103.313614 C22.7325509,107.707921 16.1289283,103.842998 16.265683,103.863075 C16.3831925,103.882921 18.0674943,104.85146 18.0674943,104.970998 C24.8332302,107.781075 32.2440226,109.335768 40.0068906,109.335768 L40.0068906,105.349691 L28.7047019,52.4165368 Z" id="Path" fill="#FFFFFF" fill-rule="nonzero"></path>
                        <polygon id="Path" fill="#EEF3F7" fill-rule="nonzero" points="28.7047019 52.4165368 26.2997208 53.1736906 19.9447019 64.2346906 27.9813057 64.4938445 23.0341358 67.3636906 39.9871925 105.389614"></polygon>
                        <path d="M51.2502113,52.4961522 L72.2311925,59.3719214 C73.0915698,59.6509214 73.6195698,60.3884599 73.7954943,61.2852291 L79.9548906,93.1327676 C75.8094566,97.1386906 71.7729283,100.017998 65.8958717,103.137537 L65.8111925,103.137537 C59.9169283,106.059768 64.3650792,103.842768 64.2280981,103.862844 C64.1108151,103.882691 63.1503623,104.412075 63.1503623,104.412075 L61.8874189,104.991075 C55.121683,107.801152 47.7108906,109.355614 39.9480226,109.355614 L39.9480226,105.369768 L51.2502113,52.4961522 Z" id="Path" fill="#EEF3F7" fill-rule="nonzero"></path>
                        <polygon id="Path" fill="#FFFFFF" fill-rule="nonzero" points="51.2499849 52.4961522 52.5797208 52.9147676 60.0102113 64.3145368 51.9736075 64.5736906 56.9010792 67.4435368 39.9674943 105.389614"></polygon>
                        <path d="M42.3532302,105.13046 C41.6493057,105.13046 41.0821358,105.708537 41.0821358,106.425998 C41.0821358,107.14346 41.6493057,107.721537 42.3532302,107.721537 C43.0571547,107.721537 43.6243245,107.14346 43.6243245,106.425998 C43.6243245,105.708537 43.0571547,105.13046 42.3532302,105.13046 Z" id="Path" fill="#D9DADA" fill-rule="nonzero"></path>
                        <path d="M42.2359472,105.13046 C41.5906642,105.13046 41.0626642,105.668614 41.0626642,106.30646 C41.0626642,106.964152 41.5906642,107.502306 42.2359472,107.502306 C42.8812302,107.502306 43.4092302,106.964152 43.4092302,106.30646 C43.4092302,105.648768 42.8812302,105.13046 42.2359472,105.13046 Z" id="Path" fill="#FFFFFF" fill-rule="nonzero"></path>
                    </g>
                </g>
                <mask id="mask-14" fill="white">
                    <use xlink:href="#path-13"></use>
                </mask>
                <use id="Mask-Copy" stroke="#FFFFFF" stroke-width="2" xlink:href="#path-13"></use>
            </g>
        </g>
    </g>
</svg>