<?xml version="1.0" encoding="UTF-8"?>
<svg width="122px" height="122px" viewBox="0 0 122 122" version="1.1" xmlns="http://www.w3.org/2000/svg" xmlns:xlink="http://www.w3.org/1999/xlink">
    <title>proposal-03</title>
    <defs>
        <circle id="path-1" cx="60" cy="60" r="60"></circle>
        <linearGradient x1="50%" y1="34.4183699%" x2="49.9998566%" y2="100.066875%" id="linearGradient-3">
            <stop stop-color="#FFFFFF" offset="0%"></stop>
            <stop stop-color="#E8E8E8" offset="100%"></stop>
        </linearGradient>
        <linearGradient x1="49.9999995%" y1="-2%" x2="49.9999995%" y2="102%" id="linearGradient-4">
            <stop stop-color="#03A6A6" offset="0%"></stop>
            <stop stop-color="#006667" offset="100%"></stop>
        </linearGradient>
        <linearGradient x1="49.9997917%" y1="50%" x2="49.9997917%" y2="100.066875%" id="linearGradient-5">
            <stop stop-color="#FFFFFF" offset="0%"></stop>
            <stop stop-color="#E8E8E8" offset="100%"></stop>
        </linearGradient>
        <linearGradient x1="49.9997917%" y1="50%" x2="49.9997917%" y2="100.066875%" id="linearGradient-6">
            <stop stop-color="#FFFFFF" offset="0%"></stop>
            <stop stop-color="#E8E8E8" offset="100%"></stop>
        </linearGradient>
        <circle id="path-7" cx="60" cy="60" r="60"></circle>
    </defs>
    <g id="Page-1" stroke="none" stroke-width="1" fill="none" fill-rule="evenodd">
        <g id="AI---Avatar-Proposal-03--" transform="translate(-39.000000, -78.000000)">
            <g id="proposal-03" transform="translate(40.000000, 79.000000)">
                <mask id="mask-2" fill="white">
                    <use xlink:href="#path-1"></use>
                </mask>
                <use id="Mask" fill-opacity="0.16" fill="#03A6A6" xlink:href="#path-1"></use>
                <g id="robot" mask="url(#mask-2)">
                    <g transform="translate(1.000000, 21.000000)" id="Group">
                        <g transform="translate(17.640000, 0.000000)">
                            <g transform="translate(0.000000, 63.360000)" fill-rule="nonzero" id="Path">
                                <g>
                                    <path d="M11.268,55.152 L5.58,55.152 L5.58,8.424 C5.58,3.816 9.324,0.072 13.932,0.072 L21.024,0.072 L21.024,5.76 L13.932,5.76 C12.456,5.76 11.268,6.948 11.268,8.424 L11.268,55.152 Z" fill="#03A6A6"></path>
                                    <path d="M5.436,39.204 C7.488,39.42 9.252,39.384 10.62,39.204 C11.808,39.06 12.888,38.412 13.608,37.44 C14.94,35.532 15.732,32.94 15.732,30.06 C15.732,27.216 14.904,24.624 13.608,22.68 C12.924,21.672 11.844,21.024 10.62,20.916 C9.216,20.772 7.488,20.7 5.436,20.916 C4.248,21.06 3.132,21.672 2.448,22.68 C1.116,24.588 0.324,27.18 0.324,30.06 C0.324,32.94 1.152,35.532 2.448,37.44 C3.168,38.448 4.248,39.096 5.436,39.204 Z" fill="url(#linearGradient-3)"></path>
                                </g>
                                <g transform="translate(60.840000, 0.000000)">
                                    <path d="M10.08,55.152 L15.768,55.152 L15.768,8.424 C15.768,3.816 12.024,0.072 7.416,0.072 L0.324,0.072 L0.324,5.76 L7.416,5.76 C8.892,5.76 10.08,6.948 10.08,8.424 L10.08,55.152 L10.08,55.152 Z" fill="#03A6A6"></path>
                                    <path d="M15.912,39.204 C13.86,39.42 12.096,39.384 10.728,39.204 C9.54,39.06 8.46,38.412 7.74,37.44 C6.408,35.532 5.616,32.94 5.616,30.06 C5.616,27.216 6.444,24.624 7.74,22.68 C8.424,21.672 9.504,21.024 10.728,20.916 C12.132,20.772 13.86,20.7 15.912,20.916 C17.1,21.06 18.216,21.672 18.9,22.68 C20.232,24.588 21.024,27.18 21.024,30.06 C21.024,32.94 20.196,35.532 18.9,37.44 C18.18,38.448 17.1,39.096 15.912,39.204 Z" fill="#FFFFFF"></path>
                                </g>
                            </g>
                            <path d="M61.956,12.6 L20.268,12.6 C14.94,12.6 10.656,16.92 10.656,22.212 L10.656,28.26 C10.656,33.588 14.976,37.872 20.268,37.872 L61.956,37.872 C67.284,37.872 71.568,33.552 71.568,28.26 L71.568,22.212 C71.568,16.92 67.248,12.6 61.956,12.6 Z" id="Path" fill="url(#linearGradient-4)" fill-rule="nonzero"></path>
                            <rect id="Rectangle" fill="#03A6A6" fill-rule="nonzero" x="31.608" y="94.32" width="19.008" height="38.016"></rect>
                            <path d="M29.412,106.38 C22.608,106.38 17.064,101.268 17.064,94.968 L17.064,68.292 C17.064,61.992 22.608,56.88 29.412,56.88 L52.812,56.88 C59.616,56.88 65.16,61.992 65.16,68.292 L65.16,94.968 C65.16,101.268 59.616,106.38 52.812,106.38 L29.412,106.38 L29.412,106.38 Z" id="Path" fill="#03A6A6" fill-rule="nonzero"></path>
                            <rect id="Rectangle" fill="#03A6A6" fill-rule="nonzero" x="36.648" y="40.392" width="8.892" height="16.74"></rect>
                            <path d="M32.94,49.428 C39.384,50.004 44.892,49.86 49.284,49.428 C53.064,49.068 56.484,47.34 58.644,44.676 C62.784,39.564 65.34,32.652 65.34,25.02 C65.34,17.388 62.784,10.476 58.644,5.364 C56.484,2.7 53.064,1.008 49.284,0.612 C44.892,0.18 39.42,0.036 32.94,0.612 C29.16,0.936 25.74,2.664 23.58,5.328 C19.404,10.44 16.848,17.352 16.848,24.984 C16.848,32.616 19.404,39.528 23.58,44.64 C25.74,47.376 29.16,49.104 32.94,49.428 Z" id="Path" fill="url(#linearGradient-5)" fill-rule="nonzero"></path>
                            <path d="M54.144,56.304 L51.552,56.304 L50.868,60.264 C50.472,62.496 48.708,64.116 46.656,64.116 L35.568,64.116 C33.516,64.116 31.752,62.496 31.356,60.264 L30.672,56.304 L28.08,56.304 C21.708,56.304 16.524,60.948 16.524,66.708 L16.524,96.552 C16.524,102.276 21.708,106.956 28.08,106.956 L54.144,106.956 C60.516,106.956 65.7,102.312 65.7,96.552 L65.7,66.708 C65.7,60.984 60.516,56.304 54.144,56.304 Z" id="Path" fill="url(#linearGradient-6)" fill-rule="nonzero"></path>
                            <path d="M59.256,99.432 C58.824,96.552 56.376,94.464 53.46,94.464 L28.764,94.464 C25.848,94.464 23.4,96.552 22.968,99.432 L22.068,105.408 C22.5,105.66 22.932,105.876 23.4,106.056 L24.372,99.684 C24.696,97.488 26.568,95.904 28.764,95.904 L53.46,95.904 C55.656,95.904 57.528,97.488 57.852,99.684 L58.824,106.056 C59.292,105.876 59.724,105.66 60.156,105.408 L59.256,99.432 Z" id="Path" fill="#03A6A6" fill-rule="nonzero"></path>
                            <g transform="translate(22.320000, 13.680000)" fill-rule="nonzero" id="Path">
                                <path d="M37.404,7.776 C37.404,20.196 29.052,30.276 18.756,30.276 C8.46,30.276 0.108,20.196 0.108,7.776 C0.108,-4.644 8.316,1.944 18.612,1.944 C28.944,1.944 37.404,-4.644 37.404,7.776 Z" fill="#03A6A6"></path>
                                <path d="M32.184,2.34 C30.852,2.34 29.196,2.664 27.252,3.024 C24.696,3.528 21.78,4.068 18.648,4.068 C18.54,4.068 18.432,4.068 18.36,4.068 C18.288,4.788 18.252,5.508 18.252,6.264 C18.252,14.544 22.464,21.564 28.368,24.3 C32.544,20.592 35.28,14.58 35.28,7.776 C35.28,2.34 33.696,2.34 32.184,2.34 Z" fill="#DEFFFF"></path>
                            </g>
                        </g>
                    </g>
                </g>
                <mask id="mask-8" fill="white">
                    <use xlink:href="#path-7"></use>
                </mask>
                <use id="Mask-Copy" stroke="#FFFFFF" stroke-width="2" xlink:href="#path-7"></use>
            </g>
        </g>
    </g>
</svg>